REM DIRINDEX 1\2,1\3,1\4,1\5,1\6
REM DIRNAME cjc091,folder01,folder02,folder03,folder04,folder05
TITLE ""
FILE "CD2-51.mp3" MP3
  TRACK 01 AUDIO
    TITLE "6:cjc091_2544"
    INDEX 01 00:00:00
  TRACK 02 AUDIO
    TITLE "0:"
    INDEX 01 00:02:10
  TRACK 03 AUDIO
    TITLE "2:cjc091_2545"
    INDEX 01 00:03:37
  TRACK 04 AUDIO
    TITLE "0:"
    INDEX 01 00:05:34
  TRACK 05 AUDIO
    TITLE "3:cjc091_2546"
    INDEX 01 00:05:46
  TRACK 06 AUDIO
    TITLE "0:"
    INDEX 01 00:07:07
  TRACK 07 AUDIO
    TITLE "4:cjc091_2547"
    INDEX 01 00:07:21
  TRACK 08 AUDIO
    TITLE "4:cjc091_2548"
    INDEX 01 00:12:69
  TRACK 09 AUDIO
    TITLE "0:"
    INDEX 01 00:16:10
  TRACK 10 AUDIO
    TITLE "2:cjc091_2549"
    INDEX 01 00:17:18
  TRACK 11 AUDIO
    TITLE "0:"
    INDEX 01 00:19:01
  TRACK 12 AUDIO
    TITLE "3:cjc091_2550"
    INDEX 01 00:19:18
  TRACK 13 AUDIO
    TITLE "0:"
    INDEX 01 00:20:73
  TRACK 14 AUDIO
    TITLE "4:cjc091_2551"
    INDEX 01 00:21:11
  TRACK 15 AUDIO
    TITLE "4:cjc091_2552"
    INDEX 01 00:24:02
  TRACK 16 AUDIO
    TITLE "0:"
    INDEX 01 00:25:62
  TRACK 17 AUDIO
    TITLE "2:cjc091_2553"
    INDEX 01 00:26:66
  TRACK 18 AUDIO
    TITLE "0:"
    INDEX 01 00:29:01
  TRACK 19 AUDIO
    TITLE "3:cjc091_2554"
    INDEX 01 00:29:13
  TRACK 20 AUDIO
    TITLE "0:"
    INDEX 01 00:30:59
  TRACK 21 AUDIO
    TITLE "4:cjc091_2555"
    INDEX 01 00:30:73
  TRACK 22 AUDIO
    TITLE "4:cjc091_2556"
    INDEX 01 00:32:23
  TRACK 23 AUDIO
    TITLE "4:cjc091_2557"
    INDEX 01 00:34:26
  TRACK 24 AUDIO
    TITLE "4:cjc091_2558"
    INDEX 01 00:36:25
  TRACK 25 AUDIO
    TITLE "4:cjc091_2559"
    INDEX 01 00:39:13
  TRACK 26 AUDIO
    TITLE "0:"
    INDEX 01 00:42:04
  TRACK 27 AUDIO
    TITLE "2:cjc091_2560"
    INDEX 01 00:43:15
  TRACK 28 AUDIO
    TITLE "0:"
    INDEX 01 00:44:65
  TRACK 29 AUDIO
    TITLE "3:cjc091_2561"
    INDEX 01 00:45:04
  TRACK 30 AUDIO
    TITLE "0:"
    INDEX 01 00:46:74
  TRACK 31 AUDIO
    TITLE "4:cjc091_2562"
    INDEX 01 00:47:13
  TRACK 32 AUDIO
    TITLE "4:cjc091_2563"
    INDEX 01 00:50:37
  TRACK 33 AUDIO
    TITLE "4:cjc091_2564"
    INDEX 01 00:53:15
  TRACK 34 AUDIO
    TITLE "4:cjc091_2565"
    INDEX 01 00:54:70
  TRACK 35 AUDIO
    TITLE "4:cjc091_2566"
    INDEX 01 00:56:33
  TRACK 36 AUDIO
    TITLE "0:"
    INDEX 01 00:57:56
  TRACK 37 AUDIO
    TITLE "2:cjc091_2567"
    INDEX 01 00:58:64
  TRACK 38 AUDIO
    TITLE "0:"
    INDEX 01 01:00:35
  TRACK 39 AUDIO
    TITLE "3:cjc091_2568"
    INDEX 01 01:00:51
  TRACK 40 AUDIO
    TITLE "0:"
    INDEX 01 01:02:54
  TRACK 41 AUDIO
    TITLE "4:cjc091_2569"
    INDEX 01 01:02:69
  TRACK 42 AUDIO
    TITLE "4:cjc091_2570"
    INDEX 01 01:08:29
  TRACK 43 AUDIO
    TITLE "0:"
    INDEX 01 01:12:26
  TRACK 44 AUDIO
    TITLE "2:cjc091_2571"
    INDEX 01 01:13:28
  TRACK 45 AUDIO
    TITLE "0:"
    INDEX 01 01:14:55
  TRACK 46 AUDIO
    TITLE "3:cjc091_2572"
    INDEX 01 01:14:68
  TRACK 47 AUDIO
    TITLE "0:"
    INDEX 01 01:16:63
  TRACK 48 AUDIO
    TITLE "4:cjc091_2573"
    INDEX 01 01:17:04
  TRACK 49 AUDIO
    TITLE "4:cjc091_2574"
    INDEX 01 01:20:10
  TRACK 50 AUDIO
    TITLE "4:cjc091_2575"
    INDEX 01 01:22:68
  TRACK 51 AUDIO
    TITLE "0:"
    INDEX 01 01:27:08
  TRACK 52 AUDIO
    TITLE "2:cjc091_2576"
    INDEX 01 01:28:12
  TRACK 53 AUDIO
    TITLE "0:"
    INDEX 01 01:29:74
  TRACK 54 AUDIO
    TITLE "3:cjc091_2577"
    INDEX 01 01:30:20
  TRACK 55 AUDIO
    TITLE "0:"
    INDEX 01 01:32:23
  TRACK 56 AUDIO
    TITLE "4:cjc091_2578"
    INDEX 01 01:32:35
  TRACK 57 AUDIO
    TITLE "4:cjc091_2579"
    INDEX 01 01:34:18
  TRACK 58 AUDIO
    TITLE "4:cjc091_2580"
    INDEX 01 01:38:73
  TRACK 59 AUDIO
    TITLE "4:cjc091_2581"
    INDEX 01 01:40:17
  TRACK 60 AUDIO
    TITLE "0:"
    INDEX 01 01:42:61
  TRACK 61 AUDIO
    TITLE "2:cjc091_2582"
    INDEX 01 01:43:62
  TRACK 62 AUDIO
    TITLE "0:"
    INDEX 01 01:45:10
  TRACK 63 AUDIO
    TITLE "3:cjc091_2583"
    INDEX 01 01:45:26
  TRACK 64 AUDIO
    TITLE "0:"
    INDEX 01 01:47:01
  TRACK 65 AUDIO
    TITLE "4:cjc091_2584"
    INDEX 01 01:47:11
  TRACK 66 AUDIO
    TITLE "4:cjc091_2585"
    INDEX 01 01:48:32
  TRACK 67 AUDIO
    TITLE "4:cjc091_2586"
    INDEX 01 01:51:05
  TRACK 68 AUDIO
    TITLE "4:cjc091_2587"
    INDEX 01 01:53:53
  TRACK 69 AUDIO
    TITLE "0:"
    INDEX 01 01:56:67
  TRACK 70 AUDIO
    TITLE "2:cjc091_2588"
    INDEX 01 01:57:70
  TRACK 71 AUDIO
    TITLE "0:"
    INDEX 01 01:59:38
  TRACK 72 AUDIO
    TITLE "3:cjc091_2589"
    INDEX 01 01:59:53
  TRACK 73 AUDIO
    TITLE "0:"
    INDEX 01 02:01:11
  TRACK 74 AUDIO
    TITLE "4:cjc091_2590"
    INDEX 01 02:01:25
  TRACK 75 AUDIO
    TITLE "4:cjc091_2591"
    INDEX 01 02:03:06
  TRACK 76 AUDIO
    TITLE "4:cjc091_2592"
    INDEX 01 02:04:57
  TRACK 77 AUDIO
    TITLE "4:cjc091_2593"
    INDEX 01 02:07:61
  TRACK 78 AUDIO
    TITLE "4:cjc091_2594"
    INDEX 01 02:09:13
  TRACK 79 AUDIO
    TITLE "0:"
    INDEX 01 02:12:40
  TRACK 80 AUDIO
    TITLE "2:cjc091_2595"
    INDEX 01 02:13:44
  TRACK 81 AUDIO
    TITLE "0:"
    INDEX 01 02:16:07
  TRACK 82 AUDIO
    TITLE "3:cjc091_2596"
    INDEX 01 02:16:09
  TRACK 83 AUDIO
    TITLE "0:"
    INDEX 01 02:17:73
  TRACK 84 AUDIO
    TITLE "4:cjc091_2597"
    INDEX 01 02:18:16
  TRACK 85 AUDIO
    TITLE "4:cjc091_2598"
    INDEX 01 02:20:63
  TRACK 86 AUDIO
    TITLE "4:cjc091_2599"
    INDEX 01 02:22:13
  TRACK 87 AUDIO
    TITLE "0:"
    INDEX 01 02:24:47
